Input #0, mov,mp4,m4a,3gp,3g2,mj2, from '/var/www/html/project/media/video/original/GTNP.mp4':
  Metadata:
    major_brand     : isom
    minor_version   : 512
    compatible_brands: isomiso2mp41
    creation_time   : 2024-07-18T11:38:44.000000Z
    encoder         : Blackmagic Design DaVinci Resolve Studio
  Duration: 00:01:18.14, start: 0.000000, bitrate: 7315 kb/s
    Stream #0:0(und): Video: hevc (Main 10), 1 reference frame (hvc1 / 0x31637668), yuv420p10le(tv, bt709, progressive), 1920x1080 (1920x1088) [SAR 1:1 DAR 16:9], 6990 kb/s, 29.97 fps, 29.97 tbr, 30k tbn, 30k tbc (default)
    Metadata:
      creation_time   : 2024-07-18T11:38:44.000000Z
      handler_name    : VideoHandler
      timecode        : 01:00:00:00
    Stream #0:1(und): Audio: aac (LC) (mp4a / 0x6134706D), 48000 Hz, stereo, fltp, 319 kb/s (default)
    Metadata:
      creation_time   : 2024-07-18T11:38:44.000000Z
      handler_name    : SoundHandler
    Stream #0:2(eng): Data: none (tmcd / 0x64636D74)
    Metadata:
      creation_time   : 2024-07-18T11:38:44.000000Z
      handler_name    : TimeCodeHandler
      timecode        : 01:00:00:00
Input #1, png_pipe, from '/var/www/html/project/static/images/templates/logo.png':
  Duration: N/A, bitrate: N/A
    Stream #1:0: Video: png, 1 reference frame, rgba(pc), 1920x1080 [SAR 2835:2835 DAR 16:9], 25 tbr, 25 tbn, 25 tbc
[h264 @ 0x559aa6c73fc0] Reinit context to 1280x720, pix_fmt: yuv420p
Input #2, mov,mp4,m4a,3gp,3g2,mj2, from '/var/www/html/project/static/images/templates/Codino.mp4':
  Metadata:
    major_brand     : mp42
    minor_version   : 1
    compatible_brands: isommp41mp42
    creation_time   : 2021-07-11T07:02:58.000000Z
  Duration: 00:00:02.00, start: 0.000000, bitrate: 1007 kb/s
    Stream #2:0(ita): Audio: aac (LC) (mp4a / 0x6134706D), 44100 Hz, stereo, fltp, 102 kb/s (default)
    Metadata:
      creation_time   : 2021-07-11T07:02:58.000000Z
      handler_name    : Core Media Audio
    Stream #2:1(und): Video: h264 (High), 1 reference frame (avc1 / 0x31637661), yuv420p(tv, bt709, progressive, left), 1280x720 [SAR 1:1 DAR 16:9], 813 kb/s, 25 fps, 25 tbr, 25k tbn, 50k tbc (default)
    Metadata:
      creation_time   : 2021-07-11T07:02:58.000000Z
      handler_name    : Core Media Video
[Parsed_scale_0 @ 0x559aa6c98c00] w:1280 h:720 flags:'bilinear' interl:0
[Parsed_scale_2 @ 0x559aa6d00380] w:1280 h:720 flags:'bilinear' interl:0
[Parsed_scale_4 @ 0x559aa6c5e9c0] w:1280 h:720 flags:'bilinear' interl:0
Stream mapping:
  Stream #0:0 (hevc) -> scale
  Stream #0:1 (aac) -> concat:in0:a0
  Stream #1:0 (png) -> scale
  Stream #2:0 (aac) -> concat:in1:a0
  Stream #2:1 (h264) -> scale
  concat:out:v0 -> Stream #0:0 (libx264)
  concat:out:a0 -> Stream #0:1 (aac)
Press [q] to stop, [?] for help
[h264 @ 0x559aa704c800] Reinit context to 1280x720, pix_fmt: yuv420p
[Parsed_scale_0 @ 0x559aa99571c0] w:1280 h:720 flags:'bilinear' interl:0
[Parsed_scale_2 @ 0x559aa995af40] w:1280 h:720 flags:'bilinear' interl:0
[Parsed_scale_4 @ 0x559aa995be00] w:1280 h:720 flags:'bilinear' interl:0
[graph 0 input from stream 0:0 @ 0x559aa9960580] w:1920 h:1080 pixfmt:yuv420p10le tb:1/30000 fr:30000/1001 sar:1/1 sws_param:flags=2
[graph 0 input from stream 1:0 @ 0x559aa9961580] w:1920 h:1080 pixfmt:rgba tb:1/25 fr:25/1 sar:2835/2835 sws_param:flags=2
[graph 0 input from stream 2:1 @ 0x559aa9962600] w:1280 h:720 pixfmt:yuv420p tb:1/25000 fr:25/1 sar:1/1 sws_param:flags=2
[graph_0_in_0_1 @ 0x559aa99635c0] tb:1/48000 samplefmt:fltp samplerate:48000 chlayout:0x3
[graph_0_in_2_0 @ 0x559aa9964700] tb:1/44100 samplefmt:fltp samplerate:44100 chlayout:0x3
[Parsed_concat_7 @ 0x559aa995e5c0] auto-inserting filter 'auto_resampler_0' between the filter 'graph_0_in_2_0' and the filter 'Parsed_concat_7'
[Parsed_scale_0 @ 0x559aa99571c0] w:1920 h:1080 fmt:yuv420p10le sar:1/1 -> w:1280 h:720 fmt:yuv420p sar:1/1 flags:0x2
[Parsed_setsar_1 @ 0x559aa995a6c0] w:1280 h:720 sar:1/1 dar:16/9 -> sar:1/1 dar:16/9
[Parsed_scale_2 @ 0x559aa995af40] w:1920 h:1080 fmt:rgba sar:2835/2835 -> w:1280 h:720 fmt:yuva420p sar:1/1 flags:0x2
[Parsed_setsar_3 @ 0x559aa995b440] w:1280 h:720 sar:1/1 dar:16/9 -> sar:1/1 dar:16/9
[Parsed_overlay_6 @ 0x559aa995d480] main w:1280 h:720 fmt:yuv420p overlay w:1280 h:720 fmt:yuva420p
[Parsed_overlay_6 @ 0x559aa995d480] [framesync @ 0x559aa995d5e8] Selected 1/30000 time base
[Parsed_overlay_6 @ 0x559aa995d480] [framesync @ 0x559aa995d5e8] Sync level 2
[Parsed_scale_4 @ 0x559aa995be00] w:1280 h:720 fmt:yuv420p sar:1/1 -> w:1280 h:720 fmt:yuv420p sar:1/1 flags:0x2
[Parsed_setsar_5 @ 0x559aa995c900] w:1280 h:720 sar:1/1 dar:16/9 -> sar:1/1 dar:16/9
[auto_resampler_0 @ 0x559aa996c280] ch:2 chl:stereo fmt:fltp r:44100Hz -> ch:2 chl:stereo fmt:fltp r:48000Hz
[libx264 @ 0x559aa6c71480] using SAR=1/1
[libx264 @ 0x559aa6c71480] using cpu capabilities: MMX2 SSE2Fast SSSE3 SSE4.2 AVX FMA3 BMI2 AVX2
[libx264 @ 0x559aa6c71480] profile High, level 3.1
[libx264 @ 0x559aa6c71480] 264 - core 155 r2917 0a84d98 - H.264/MPEG-4 AVC codec - Copyleft 2003-2018 - http://www.videolan.org/x264.html - options: cabac=1 ref=1 deblock=1:0:0 analyse=0x3:0x113 me=hex subme=2 psy=1 psy_rd=1.00:0.00 mixed_ref=0 me_range=16 chroma_me=1 trellis=0 8x8dct=1 cqm=0 deadzone=21,11 fast_pskip=1 chroma_qp_offset=0 threads=22 lookahead_threads=5 sliced_threads=0 nr=0 decimate=1 interlaced=0 bluray_compat=0 constrained_intra=0 bframes=3 b_pyramid=2 b_adapt=1 b_bias=0 direct=1 weightb=1 open_gop=0 weightp=1 keyint=250 keyint_min=25 scenecut=40 intra_refresh=0 rc_lookahead=10 rc=crf mbtree=1 crf=18.0 qcomp=0.60 qpmin=0 qpmax=69 qpstep=4 ip_ratio=1.40 aq=1:1.00
Output #0, mp4, to '/var/www/html/project/media/video/watermarks/GTNP.mp4':
  Metadata:
    major_brand     : isom
    minor_version   : 512
    compatible_brands: isomiso2mp41
    encoder         : Lavf58.29.100
    Stream #0:0: Video: h264 (libx264), 1 reference frame (avc1 / 0x31637661), yuv420p(progressive), 1280x720 [SAR 1:1 DAR 16:9], q=-1--1, 29.97 fps, 30k tbn, 29.97 tbc (default)
    Metadata:
      encoder         : Lavc58.54.100 libx264
    Side data:
      cpb: bitrate max/min/avg: 0/0/0 buffer size: 0 vbv_delay: -1
    Stream #0:1: Audio: aac (LC) (mp4a / 0x6134706D), 48000 Hz, stereo, fltp, delay 1024, 128 kb/s (default)
    Metadata:
      encoder         : Lavc58.54.100 aac
[Parsed_overlay_6 @ 0x559aa995d480] [framesync @ 0x559aa995d5e8] Sync level 0
[Parsed_concat_7 @ 0x559aa995e5c0] EOF on in0:v0, 1 streams left in segment.
[Parsed_concat_7 @ 0x559aa995e5c0] EOF on in0:a0, 0 streams left in segment.
[Parsed_concat_7 @ 0x559aa995e5c0] Segment finished at pts=78185333
[Parsed_concat_7 @ 0x559aa995e5c0] EOF on in1:v0, 1 streams left in segment.
[Parsed_concat_7 @ 0x559aa995e5c0] EOF on in1:a0, 0 streams left in segment.
[Parsed_concat_7 @ 0x559aa995e5c0] Segment finished at pts=80204020
No more output streams to write to, finishing.
frame= 2392 fps= 55 q=-1.0 Lsize=   92174kB time=00:01:20.21 bitrate=9413.5kbits/s speed=1.83x    
[AVIOContext @ 0x559aa6c49440] Statistics: 0 seeks, 86 writeouts
video:90836kB audio:1251kB subtitle:0kB other streams:0kB global headers:0kB muxing overhead: 0.093983%
Input file #0 (/var/www/html/project/media/video/original/GTNP.mp4):
  Input stream #0:0 (video): 2342 packets read (68283144 bytes); 2342 frames decoded; 
  Input stream #0:1 (audio): 3667 packets read (3129104 bytes); 3665 frames decoded (3752896 samples); 
  Input stream #0:2 (data): 1 packets read (4 bytes); 
  Total: 6010 packets (71412252 bytes) demuxed
Input file #1 (/var/www/html/project/static/images/templates/logo.png):
  Input stream #1:0 (video): 1 packets read (111578 bytes); 1 frames decoded; 
  Total: 1 packets (111578 bytes) demuxed
Input file #2 (/var/www/html/project/static/images/templates/Codino.mp4):
  Input stream #2:0 (audio): 89 packets read (26579 bytes); 87 frames decoded (89024 samples); 
  Input stream #2:1 (video): 50 packets read (203365 bytes); 50 frames decoded; 
  Total: 139 packets (229944 bytes) demuxed
Output file #0 (/var/www/html/project/media/video/watermarks/GTNP.mp4):
  Output stream #0:0 (video): 2392 frames encoded; 2392 packets muxed (93016333 bytes); 
  Output stream #0:1 (audio): 3760 frames encoded (3849793 samples); 3761 packets muxed (1280990 bytes); 
  Total: 6153 packets (94297323 bytes) muxed
[AVIOContext @ 0x559aa6d00100] Statistics: 2 seeks, 363 writeouts
[libx264 @ 0x559aa6c71480] frame I:28    Avg QP:17.89  size:215489
[libx264 @ 0x559aa6c71480] frame P:740   Avg QP:20.70  size: 75829
[libx264 @ 0x559aa6c71480] frame B:1624  Avg QP:24.04  size: 19008
[libx264 @ 0x559aa6c71480] consecutive B-frames:  4.9% 10.9%  8.3% 75.9%
[libx264 @ 0x559aa6c71480] mb I  I16..4:  0.2% 13.2% 86.6%
[libx264 @ 0x559aa6c71480] mb P  I16..4:  0.4%  8.0%  6.1%  P16..4: 31.6% 21.5% 25.3%  0.0%  0.0%    skip: 7.1%
[libx264 @ 0x559aa6c71480] mb B  I16..4:  0.1%  1.1%  0.2%  B16..8: 21.6% 11.9%  4.5%  direct:17.7%  skip:42.9%  L0:23.2% L1:32.6% BI:44.2%
[libx264 @ 0x559aa6c71480] 8x8 transform intra:51.4% inter:38.6%
[libx264 @ 0x559aa6c71480] coded y,uvDC,uvAC intra: 80.6% 70.3% 37.1% inter: 38.0% 20.6% 2.2%
[libx264 @ 0x559aa6c71480] i16 v,h,dc,p: 28% 31% 28% 13%
[libx264 @ 0x559aa6c71480] i8 v,h,dc,ddl,ddr,vr,hd,vl,hu: 25% 29% 22%  3%  4%  3%  5%  3%  5%
[libx264 @ 0x559aa6c71480] i4 v,h,dc,ddl,ddr,vr,hd,vl,hu: 14% 18%  9%  8% 12%  9% 11%  8% 11%
[libx264 @ 0x559aa6c71480] i8c dc,h,v,p: 48% 26% 15% 10%
[libx264 @ 0x559aa6c71480] Weighted P-Frames: Y:11.9% UV:7.7%
[libx264 @ 0x559aa6c71480] kb/s:9280.67
[aac @ 0x559aa6c6c5c0] Qavg: 876.840
[AVIOContext @ 0x559aa6c52380] Statistics: 125662052 bytes read, 2122 seeks
[AVIOContext @ 0x559aa6c5c3c0] Statistics: 111578 bytes read, 0 seeks
[AVIOContext @ 0x559aa6c6c1c0] Statistics: 1530915 bytes read, 42 seeks
